<?xml version="1.0" encoding="UTF-8"?>
<svg id="Layer_1" data-name="Layer 1" xmlns="http://www.w3.org/2000/svg" viewBox="0 0 1080 1080">
  <defs>
    <style>
      .cls-1 {
        fill: #fff;
      }
    </style>
  </defs>
  <rect width="1080" height="1080"/>
  <g>
    <path class="cls-1" d="M600.1,712.49h-298.94c-9.16.01-15.78-6.11-16.1-14.67-.29-7.87,6.28-15.26,14.84-15.32l30.12-.08v-74.97s284.95,0,284.95,0v89.82c0,8.32-5.9,14.69-14.87,15.22Z"/>
    <path class="cls-1" d="M794.94,378.95v7.67c-2.58,5.36-6.53,9.75-13.01,10.87l-31.96.06-.02,67.51h-284.9s-.08-81.36-.08-81.36c0-9.08,5.91-16.1,15.44-16.2l300.41.03c7.37,0,11.53,5.83,14.11,11.42Z"/>
    <rect class="cls-1" x="397.52" y="487.46" width="284.94" height="97.55"/>
  </g>
</svg>