<?xml version="1.0" encoding="UTF-8"?>
<svg id="Layer_1" data-name="Layer 1" xmlns="http://www.w3.org/2000/svg" viewBox="0 0 1080 1080">
  <defs>
    <style>
      .cls-1 {
        fill: #fff;
      }
    </style>
  </defs>
  <path class="cls-1" d="M667.43,905.35l-633.18.02c-19.4,0-33.42-12.96-34.1-31.1-.62-16.67,13.31-32.32,31.43-32.44l63.8-.17v-158.79s603.53,0,603.53,0l-.02,190.25c0,17.62-12.49,31.12-31.48,32.24Z"/>
  <path class="cls-1" d="M1080.11,198.88l.03,16.25c-5.5,11.35-13.85,20.65-27.58,23.02l-67.68.12-.04,143H381.42s-.17-172.32-.17-172.32c-.02-19.24,12.52-34.1,32.7-34.3l636.28.06c15.61,0,24.42,12.34,29.88,24.2Z"/>
  <rect class="cls-1" x="238.37" y="428.73" width="603.52" height="206.62"/>
</svg>